<svg id="ei65iyox3fr1" xmlns="http://www.w3.org/2000/svg" xmlns:xlink="http://www.w3.org/1999/xlink" viewBox="0 0 447.320000 80.650000" shape-rendering="geometricPrecision" text-rendering="geometricPrecision"><style><![CDATA[#ei65iyox3fr3_to {animation: ei65iyox3fr3_to__to 1500ms linear 1 normal forwards}@keyframes ei65iyox3fr3_to__to { 0% {transform: translate(223.660000px,41.084632px)} 33.333333% {transform: translate(223.660000px,41.084632px)} 73.333333% {transform: translate(71.418169px,41.084632px)} 100% {transform: translate(71.418169px,41.084632px)} }#ei65iyox3fr3 {animation: ei65iyox3fr3_c_o 1500ms linear 1 normal forwards}@keyframes ei65iyox3fr3_c_o { 0% {opacity: 0} 33.333333% {opacity: 1} 100% {opacity: 1} }#ei65iyox3fr8 {animation: ei65iyox3fr8_c_o 1500ms linear 1 normal forwards}@keyframes ei65iyox3fr8_c_o { 0% {opacity: 0} 60% {opacity: 0} 86.666667% {opacity: 1} 100% {opacity: 1} }]]></style><g id="ei65iyox3fr2"><g id="ei65iyox3fr3_to" transform="translate(223.660000,41.084632)"><g id="ei65iyox3fr3" transform="translate(-67.234720,-41.084632)" opacity="0"><path id="ei65iyox3fr4" d="M111.700000,31.460000C111.700000,31.780000,111.650000,32.160000,111.590000,32.460000C111.510000,32.810000,111.550000,33.170000,111.480000,33.480000C111.470000,33.650000,111.460000,33.810000,111.450000,33.980000C111.320000,34.540000,111.330000,35.200000,111.200000,35.750000C111.160000,36.080000,111.130000,36.410000,111.090000,36.750000C110.820000,37.870000,110.800000,39.080000,110.450000,40.130000C110.090000,41.230000,109.670000,42.320000,109.400000,43.510000C109.370000,43.510000,109.340000,43.510000,109.320000,43.510000C105.280000,42.920000,101.230000,42.330000,97.190000,41.740000C97.190000,41.750000,97.190000,41.760000,97.190000,41.770000C97.200000,41.770000,97.210000,41.770000,97.220000,41.770000C100.220000,43.770000,103.220000,45.780000,106.220000,47.780000C106.220000,47.790000,106.220000,47.800000,106.220000,47.810000C106.210000,47.810000,106.200000,47.810000,106.190000,47.810000C105.990000,48.130000,105.690000,48.370000,105.470000,48.670000C104.900000,49.430000,104.240000,50.100000,103.670000,50.860000C103.520000,51.060000,103.290000,51.220000,103.140000,51.410000C102.650000,52.060000,102.050000,52.590000,101.560000,53.240000C101.350000,53.510000,101.020000,53.710000,100.810000,53.990000C100.600000,54.270000,100.340000,54.490000,100.090000,54.740000C99.840000,54.990000,99.630000,55.250000,99.340000,55.460000C99.110000,55.630000,98.930000,55.900000,98.700000,56.070000C97.980000,56.600000,97.120000,57.010000,96.350000,57.480000C96.200000,57.570000,95.580000,57.900000,95.570000,57.900000C95.380000,57.770000,95.260000,57.530000,95.130000,57.350000C94.790000,56.890000,94.400000,56.460000,94.050000,55.990000C93.890000,55.770000,93.660000,55.570000,93.500000,55.350000C92.660000,54.220000,91.700000,53.180000,90.870000,52.060000C90.590000,51.680000,90.260000,51.330000,89.980000,50.950000C89.840000,50.770000,89.720000,50.520000,89.540000,50.400000C89.540000,50.410000,89.540000,50.420000,89.540000,50.430000C89.640000,50.570000,89.620000,50.770000,89.680000,50.960000C89.840000,51.460000,89.920000,52.010000,90.100000,52.540000C90.630000,54.160000,90.930000,55.930000,91.460000,57.550000C91.640000,58.120000,91.700000,58.670000,91.880000,59.240000C91.920000,59.390000,92.070000,59.700000,92.020000,59.820000C91.870000,59.940000,91.660000,59.960000,91.470000,60.040000C90.950000,60.260000,90.410000,60.450000,89.860000,60.680000C88.400000,61.300000,86.850000,61.840000,85.240000,62.290000C84.830000,62.350000,84.430000,62.420000,84.020000,62.480000C83.840000,62.490000,83.650000,62.500000,83.470000,62.510000C82.980000,62.620000,82.400000,62.610000,81.840000,62.620000C81.630000,62.620000,81.190000,62.730000,81.010000,62.620000C80.760000,62.530000,80.410000,62.040000,80.210000,61.840000C79.880000,61.520000,79.550000,61.170000,79.190000,60.900000C78.870000,60.650000,78.640000,60.290000,78.300000,60.040000C78.030000,59.840000,77.750000,59.320000,77.440000,59.210000C77.350000,59.350000,77.180000,59.410000,77.050000,59.510000C76.930000,59.600000,76.780000,59.800000,76.690000,59.930000C75.890000,61,75.040000,62.010000,74.250000,63.090000C73.990000,63.450000,73.690000,63.780000,73.420000,64.140000C73.330000,64.270000,73.170000,64.360000,73.120000,64.530000C73.260000,64.690000,73.300000,64.940000,73.400000,65.140000C73.650000,65.650000,73.890000,66.200000,74.150000,66.720000C73.810000,66.730000,73.420000,66.790000,73.130000,66.860000C72.990000,66.870000,72.850000,66.880000,72.710000,66.890000C72.060000,67.050000,71.340000,67.080000,70.770000,67.330000C70.410000,67.490000,70.050000,67.740000,69.720000,67.940000C69.280000,68.210000,68.810000,68.360000,68.360000,68.630000C68.070000,68.810000,67.730000,69.090000,67.390000,69.180000C67.100000,69.260000,66.940000,69.070000,66.810000,68.990000C66.720000,68.930000,66.620000,68.930000,66.530000,68.880000C66.180000,68.660000,65.780000,68.460000,65.420000,68.240000C65.110000,68.050000,64.790000,67.960000,64.480000,67.770000C64.200000,67.600000,63.910000,67.400000,63.590000,67.270000C63.130000,67.080000,62.640000,67.100000,62.120000,66.970000C61.590000,66.840000,60.940000,66.750000,60.350000,66.720000C60.350000,66.710000,60.350000,66.700000,60.350000,66.690000C60.550000,66.460000,60.640000,66.070000,60.770000,65.780000C60.950000,65.360000,61.250000,64.940000,61.380000,64.480000C61.100000,64.280000,60.690000,63.620000,60.470000,63.320000C59.790000,62.400000,58.990000,61.550000,58.310000,60.630000C58,60.210000,57.510000,59.390000,57.010000,59.220000C56.770000,59.590000,56.350000,59.850000,56.040000,60.160000C55.200000,60.990000,54.300000,61.790000,53.490000,62.650000C49.960000,62.730000,47.440000,61.830000,44.990000,60.820000C44.370000,60.560000,43.760000,60.350000,43.160000,60.100000C42.960000,60.010000,42.520000,59.960000,42.440000,59.770000C42.570000,59.570000,42.550000,59.270000,42.630000,59.020000C42.840000,58.380000,42.940000,57.690000,43.160000,57.030000C43.690000,55.410000,43.990000,53.640000,44.520000,52.020000C44.700000,51.480000,44.740000,50.930000,44.940000,50.410000C44.930000,50.410000,44.920000,50.410000,44.910000,50.410000C42.910000,52.920000,40.900000,55.430000,38.900000,57.940000C38.290000,57.600000,37.670000,57.220000,37.070000,56.860000C36.720000,56.650000,36.340000,56.510000,36.020000,56.280000C35.700000,56.050000,35.440000,55.710000,35.130000,55.480000C34.850000,55.270000,34.630000,55.010000,34.380000,54.760000C34.130000,54.510000,33.870000,54.300000,33.660000,54.010000C33.450000,53.740000,33.120000,53.540000,32.910000,53.260000C32.310000,52.470000,31.570000,51.810000,30.970000,51.020000C30.780000,50.770000,30.500000,50.550000,30.310000,50.300000C29.810000,49.640000,29.250000,49.050000,28.760000,48.390000C28.610000,48.190000,28.400000,48.020000,28.260000,47.810000C31.270000,45.810000,34.280000,43.800000,37.290000,41.800000C37.290000,41.790000,37.290000,41.780000,37.290000,41.770000C37.270000,41.770000,37.250000,41.770000,37.230000,41.770000C33.180000,42.360000,29.130000,42.950000,25.070000,43.540000C24.860000,42.350000,24.380000,41.250000,24.020000,40.160000C23.750000,39.340000,23.710000,38.400000,23.490000,37.530000C23.450000,37.220000,23.420000,36.900000,23.380000,36.590000C23.240000,36,23.240000,35.310000,23.100000,34.710000C23.090000,34.550000,23.080000,34.400000,23.070000,34.240000C22.980000,33.860000,23.030000,33.430000,22.930000,33.020000C22.830000,32.560000,22.780000,31.990000,22.760000,31.500000C26.040000,31.540000,29.310000,31.570000,32.590000,31.610000C33.460000,31.610000,34.370000,31.640000,35.190000,31.640000C35.410000,31.640000,36.080000,31.700000,36.210000,31.610000C36.010000,31.590000,35.860000,31.480000,35.710000,31.420000C35.370000,31.280000,35.030000,31.170000,34.710000,31.030000C33.590000,30.560000,32.450000,30.180000,31.360000,29.730000C30.680000,29.450000,30.020000,29.260000,29.340000,28.980000C26.590000,27.840000,23.730000,26.870000,20.980000,25.710000C20.930000,25.310000,20.890000,24.920000,20.840000,24.520000C20.760000,24.150000,20.830000,23.760000,20.760000,23.410000C20.740000,22.990000,20.720000,22.580000,20.700000,22.160000C20.620000,21.760000,20.640000,21.270000,20.640000,20.800000C20.640000,20.630000,20.640000,20.470000,20.640000,20.300000C20.670000,20.150000,20.630000,19.900000,20.670000,19.720000C20.730000,19.020000,20.800000,18.320000,20.860000,17.620000C20.980000,17.100000,20.950000,16.530000,21.080000,15.990000C21.320000,15,21.430000,13.940000,21.630000,12.970000C21.640000,12.970000,21.650000,12.970000,21.660000,12.970000C21.850000,13.110000,22.120000,13.140000,22.350000,13.250000C22.850000,13.470000,23.380000,13.660000,23.900000,13.890000C25.410000,14.530000,26.970000,15.110000,28.500000,15.770000C33.630000,18,38.900000,19.980000,44.060000,22.170000C43.480000,25.100000,43.620000,29.170000,44.360000,31.830000C44.450000,32.160000,44.460000,32.450000,44.550000,32.770000C44.860000,33.790000,45.100000,34.830000,45.490000,35.790000C46.240000,37.610000,47.050000,39.310000,48.040000,40.880000C48.500000,41.610000,49.080000,42.250000,49.590000,42.930000C50.140000,43.660000,50.800000,44.400000,51.530000,44.950000C51.670000,45.060000,51.780000,45.230000,51.920000,45.340000C52.500000,45.770000,53.050000,46.250000,53.660000,46.640000C54.440000,47.140000,55.290000,47.590000,56.180000,47.970000C56.890000,48.280000,57.630000,48.470000,58.340000,48.770000C59.990000,49.480000,61.640000,50.200000,63.100000,51.120000C63.710000,51.500000,64.300000,51.940000,64.870000,52.370000C65.050000,52.500000,65.190000,52.710000,65.370000,52.840000C65.680000,53.080000,66.020000,53.390000,66.260000,53.700000C66.520000,54.050000,66.830000,54.430000,67.010000,54.840000C67.070000,54.990000,67.110000,55.340000,67.230000,55.420000C67.250000,55.020000,67.480000,54.720000,67.650000,54.450000C68.170000,53.620000,68.810000,52.950000,69.590000,52.370000C69.870000,52.160000,70.130000,51.910000,70.420000,51.710000C71.800000,50.740000,73.410000,49.920000,75.020000,49.220000C76.550000,48.550000,78.410000,48.060000,79.780000,47.230000C83.930000,44.700000,86.540000,41.360000,88.560000,36.710000C89.070000,35.540000,89.400000,34.270000,89.810000,33C89.900000,32.720000,89.900000,32.480000,89.980000,32.200000C90.750000,29.460000,91.010000,25.250000,90.370000,22.180000C97.840000,19.120000,105.320000,16.050000,112.800000,12.990000C112.800000,13.010000,112.800000,13.030000,112.800000,13.050000C112.890000,13.200000,112.860000,13.420000,112.910000,13.600000C113.060000,14.140000,113.070000,14.730000,113.210000,15.320000C113.390000,16.050000,113.400000,16.890000,113.570000,17.650000C113.650000,18,113.610000,18.350000,113.680000,18.670000C113.700000,19.030000,113.720000,19.390000,113.740000,19.750000C113.840000,20.190000,113.870000,21.250000,113.770000,21.720000C113.700000,22.030000,113.780000,22.360000,113.710000,22.630000C113.710000,22.770000,113.710000,22.910000,113.710000,23.050000C113.580000,23.620000,113.670000,24.310000,113.540000,24.880000C113.480000,25.160000,113.580000,25.540000,113.430000,25.740000C113.140000,25.950000,112.690000,26.010000,112.350000,26.160000C111.510000,26.520000,110.640000,26.800000,109.780000,27.160000C107.140000,28.260000,104.390000,29.220000,101.750000,30.320000C100.960000,30.650000,100.160000,30.920000,99.400000,31.230000C99.090000,31.360000,98.470000,31.490000,98.240000,31.670000C102.730000,31.550000,107.220000,31.510000,111.700000,31.460000L111.700000,31.460000Z" clip-rule="evenodd" fill="rgb(242,102,26)" fill-rule="evenodd" stroke="none" stroke-width="1"/><path id="ei65iyox3fr5" d="M46.250000,25.920000C46.310000,26.020000,46.250000,26.200000,46.280000,26.340000C46.350000,26.650000,46.330000,27.020000,46.470000,27.250000C46.810000,27.820000,47.330000,28.380000,47.850000,28.770000C48.070000,28.940000,48.240000,29.170000,48.490000,29.320000C49.080000,29.680000,50.040000,29.850000,50.820000,30.010000C50.820000,29.990000,50.820000,29.970000,50.820000,29.950000C50.730000,29.810000,50.780000,29.620000,50.740000,29.420000C50.560000,28.560000,50.900000,27.910000,51.210000,27.450000C51.230000,27.450000,51.250000,27.450000,51.270000,27.450000C51.820000,29.860000,53.960000,30.830000,56.200000,31.550000C56.860000,31.760000,57.600000,31.800000,58.300000,31.970000C58.730000,32.070000,59.130000,31.980000,59.570000,32.080000C59.910000,32.160000,60.320000,32.080000,60.710000,32.160000C61.450000,32.330000,62.150000,32.370000,62.790000,32.630000C63.970000,33.120000,64.990000,33.730000,65.950000,34.430000C66.300000,34.690000,66.600000,35.020000,66.950000,35.290000C67.060000,35.380000,67.110000,35.510000,67.250000,35.570000C67.530000,35.170000,68.120000,34.760000,68.520000,34.460000C69.800000,33.520000,70.910000,32.820000,72.670000,32.330000C73.420000,32.120000,74.360000,32.230000,75.160000,32.050000C75.340000,32.040000,75.510000,32.030000,75.690000,32.020000C76.180000,31.950000,76.670000,31.870000,77.160000,31.800000C78.070000,31.570000,78.950000,31.370000,79.740000,31.020000C80.690000,30.600000,82.010000,29.790000,82.560000,29C82.780000,28.680000,82.910000,28.210000,83.060000,27.840000C83.120000,27.700000,83.100000,27.520000,83.230000,27.450000C83.230000,27.460000,83.230000,27.470000,83.230000,27.480000C83.820000,27.870000,83.790000,29.180000,83.620000,30C83.640000,30,83.660000,30,83.680000,30C83.850000,29.890000,84.130000,29.920000,84.340000,29.860000C84.710000,29.750000,85.080000,29.640000,85.450000,29.530000C86.240000,29.210000,86.880000,28.610000,87.360000,27.980000C87.600000,27.660000,87.950000,27.400000,88.080000,26.960000C88.170000,26.650000,88.170000,26.270000,88.160000,25.910000C88.170000,25.910000,88.180000,25.910000,88.190000,25.910000C88.190000,25.930000,88.190000,25.950000,88.190000,25.970000C88.460000,26.260000,88.530000,26.790000,88.690000,27.190000C88.880000,27.670000,89.240000,28.750000,89.050000,29.460000C88.720000,30.670000,87.800000,31.510000,87.140000,32.390000C86.910000,32.700000,86.640000,32.950000,86.360000,33.220000C86.270000,33.320000,86.180000,33.420000,86.080000,33.520000C85.450000,34,84.880000,34.600000,84.110000,34.930000C83.830000,35.050000,83.550000,35.080000,83.220000,35.180000C82.460000,35.430000,81.670000,35.590000,80.890000,35.840000C78.770000,36.540000,76.600000,37.180000,74.630000,38.030000C73.470000,38.530000,72.310000,38.950000,71.330000,39.640000C70.770000,40.030000,70.330000,40.680000,69.920000,41.220000C69.680000,41.450000,69.440000,41.680000,69.200000,41.910000C68.680000,42.600000,68.070000,43.200000,67.700000,44.040000C67.560000,44.350000,67.400000,44.710000,67.310000,45.040000C67.250000,45.260000,67.390000,45.620000,67.280000,45.790000C67.270000,45.680000,67.250000,45.530000,67.170000,45.490000C67.170000,45.600000,67.140000,45.730000,67.090000,45.790000C67.130000,43.980000,65.980000,42.930000,65.210000,41.910000C64.980000,41.690000,64.750000,41.470000,64.520000,41.250000C64.350000,41.020000,64.130000,40.840000,63.970000,40.610000C63.760000,40.330000,63.590000,40.020000,63.310000,39.810000C62.410000,39.140000,61.360000,38.710000,60.260000,38.230000C58.460000,37.450000,56.470000,36.800000,54.530000,36.150000C53.630000,35.850000,52.710000,35.640000,51.820000,35.350000C51.310000,35.190000,50.780000,35.140000,50.320000,34.930000C49.440000,34.540000,48.690000,33.830000,48.050000,33.190000C47.160000,32.300000,46.330000,31.370000,45.720000,30.200000C45.540000,29.860000,45.220000,29.350000,45.360000,28.730000C45.480000,28.210000,45.520000,27.700000,45.690000,27.230000C45.860000,26.810000,46.120000,26.370000,46.250000,25.920000L46.250000,25.920000Z" clip-rule="evenodd" fill="rgb(242,102,26)" fill-rule="evenodd" stroke="none" stroke-width="1"/><path id="ei65iyox3fr6" d="M53.360000,37C54.050000,36.990000,54.660000,37.060000,55.240000,37.190000C55.510000,37.250000,55.940000,37.150000,56.130000,37.300000C55.760000,37.290000,55.440000,37.400000,55.240000,37.580000C55.310000,37.850000,55.550000,38.110000,55.680000,38.360000C56.050000,39.060000,56.410000,39.800000,56.730000,40.520000C56.930000,40.960000,57.080000,41.600000,57.480000,41.850000C57.850000,42.080000,58.310000,42.100000,58.810000,42.210000C58.970000,42.250000,59.210000,42.210000,59.340000,42.240000C59.520000,42.240000,59.710000,42.240000,59.890000,42.240000C60.250000,42.320000,60.740000,42.290000,61.110000,42.320000C61.290000,42.320000,61.480000,42.320000,61.660000,42.320000C62.040000,42.400000,62.490000,42.280000,62.910000,42.380000C63.340000,42.470000,64,42.460000,64.460000,42.460000C64.630000,42.740000,64.920000,42.940000,65.100000,43.210000C64.980000,43.210000,64.860000,43.210000,64.740000,43.210000C64.590000,43.120000,64.250000,43.200000,64.050000,43.180000C63.750000,43.160000,63.440000,43.140000,63.140000,43.120000C62.940000,43.120000,62.730000,43.120000,62.530000,43.120000C62.340000,43.080000,62.030000,43.140000,61.810000,43.090000C61.130000,42.940000,60.300000,43.130000,59.620000,42.980000C59.390000,42.930000,59.070000,43,58.870000,42.950000C58.380000,42.940000,57.890000,42.930000,57.400000,42.920000C56.950000,42.800000,56.310000,42.130000,56.040000,41.780000C55.320000,40.820000,54.560000,39.860000,53.850000,38.870000C53.600000,38.530000,53.330000,38.200000,53.070000,37.850000C52.990000,37.740000,52.830000,37.630000,52.790000,37.490000C52.690000,37.070000,53.160000,37.130000,53.360000,37L53.360000,37Z" clip-rule="evenodd" fill="rgb(242,102,26)" fill-rule="evenodd" stroke="none" stroke-width="1"/><path id="ei65iyox3fr7" d="M80.440000,37C81.050000,36.990000,81.280000,37.010000,81.580000,37.300000C81.580000,37.700000,81.310000,37.840000,81.140000,38.080000C80.750000,38.620000,80.330000,39.130000,79.950000,39.660000C79.330000,40.520000,78.610000,41.730000,77.790000,42.350000C77.560000,42.520000,77.350000,42.790000,77.070000,42.900000C74.480000,43,71.880000,43.100000,69.290000,43.200000C69.290000,43.190000,69.290000,43.180000,69.290000,43.170000C69.300000,43.170000,69.310000,43.170000,69.320000,43.170000C69.360000,43.110000,69.910000,42.460000,69.930000,42.450000C70.030000,42.450000,70.130000,42.450000,70.230000,42.450000C70.360000,42.370000,70.650000,42.450000,70.840000,42.420000C71.210000,42.360000,71.740000,42.450000,72.110000,42.360000C72.480000,42.280000,72.920000,42.390000,73.330000,42.300000C73.480000,42.270000,73.730000,42.310000,73.910000,42.270000C74.810000,42.080000,75.860000,42.290000,76.620000,41.970000C76.800000,41.890000,77.070000,41.740000,77.170000,41.580000C77.300000,41.380000,77.350000,41.140000,77.450000,40.920000C77.680000,40.390000,77.950000,39.810000,78.230000,39.290000C78.430000,38.900000,78.610000,38.460000,78.840000,38.070000C78.910000,37.950000,79.160000,37.690000,79.120000,37.570000C78.990000,37.270000,78.520000,37.430000,78.260000,37.270000C78.760000,37.220000,79.320000,37.180000,79.780000,37.080000C79.980000,37.030000,80.280000,37.100000,80.440000,37L80.440000,37Z" clip-rule="evenodd" fill="rgb(242,102,26)" fill-rule="evenodd" stroke="none" stroke-width="1"/></g></g></g><path id="ei65iyox3fr8" d="M203.900000,22.040000C203.900000,25.350000,203.900000,28.670000,203.900000,31.980000C183.350000,31.980000,162.790000,31.980000,142.240000,31.980000C142.180000,29.500000,143.130000,27.880000,144.140000,26.470000C145.350000,24.790000,147.090000,23.700000,149.140000,22.860000C149.820000,22.580000,150.580000,22.460000,151.330000,22.260000C151.510000,22.240000,151.690000,22.220000,151.870000,22.200000C152.840000,21.970000,154.080000,22.030000,155.250000,22.030000C157.290000,22.030000,159.320000,22.030000,161.360000,22.030000C175.540000,22.040000,189.720000,22.040000,203.900000,22.040000L203.900000,22.040000ZM211,22.040000C231.550000,22.040000,252.110000,22.040000,272.660000,22.040000C272.660000,25.380000,272.660000,28.730000,272.660000,32.070000C264.130000,32.070000,255.590000,32.070000,247.060000,32.070000C247.060000,41.400000,247.060000,50.730000,247.060000,60.060000C243.620000,60.060000,240.180000,60.060000,236.750000,60.060000C236.750000,50.730000,236.750000,41.400000,236.750000,32.070000C228.170000,32.070000,219.590000,32.070000,211.010000,32.070000C211,28.730000,211,25.380000,211,22.040000L211,22.040000ZM341.420000,22.040000C341.420000,25.350000,341.420000,28.670000,341.420000,31.980000C320.870000,31.980000,300.310000,31.980000,279.760000,31.980000C279.710000,29.480000,280.520000,27.950000,281.550000,26.550000C282.900000,24.720000,284.880000,23.480000,287.260000,22.690000C288.090000,22.410000,288.980000,22.340000,289.900000,22.120000C290.090000,22.110000,290.280000,22.100000,290.470000,22.090000C291.190000,21.930000,292.180000,22.030000,293,22.030000C294.970000,22.030000,296.940000,22.030000,298.910000,22.030000C313.080000,22.040000,327.250000,22.040000,341.420000,22.040000L341.420000,22.040000ZM348.520000,22.040000C361.300000,22.040000,374.070000,22.040000,386.850000,22.040000C389.870000,22.040000,392.890000,22.040000,395.910000,22.040000C397.800000,22.040000,399.810000,21.930000,401.310000,22.350000C402.770000,22.770000,404.130000,23.200000,405.290000,23.910000C405.940000,24.310000,406.510000,24.800000,407.110000,25.250000C407.360000,25.440000,407.600000,25.740000,407.790000,25.990000C407.880000,26.110000,408.040000,26.210000,408.130000,26.330000C408.400000,26.690000,408.690000,27.060000,408.930000,27.440000C409.470000,28.290000,409.780000,29.250000,410.070000,30.370000C410.150000,30.690000,410.080000,30.990000,410.160000,31.340000C410.220000,31.630000,410.190000,32.050000,410.190000,32.390000C410.190000,33.090000,410.190000,33.790000,410.190000,34.490000C410.190000,37.180000,410.190000,39.870000,410.190000,42.560000C410.190000,44.640000,410.190000,46.730000,410.190000,48.810000C410.190000,50.210000,410.250000,51.630000,409.910000,52.700000C408.810000,56.080000,406.550000,57.900000,403.380000,59.210000C402.580000,59.540000,401.690000,59.670000,400.790000,59.890000C400.510000,59.920000,400.220000,59.950000,399.940000,59.980000C398.990000,60.190000,397.680000,60.070000,396.590000,60.070000C394.100000,60.070000,391.610000,60.070000,389.120000,60.070000C375.600000,60.070000,362.070000,60.070000,348.540000,60.070000C348.540000,52.130000,348.540000,44.200000,348.540000,36.260000C351.970000,36.260000,355.400000,36.260000,358.830000,36.260000C358.940000,36.600000,358.860000,37.190000,358.860000,37.600000C358.860000,38.560000,358.860000,39.510000,358.860000,40.470000C358.860000,43.660000,358.860000,46.850000,358.860000,50.050000C368.120000,50.050000,377.390000,50.050000,386.650000,50.050000C388.430000,50.050000,390.210000,50.050000,391.990000,50.050000C394.680000,50.050000,396.680000,50.030000,398.210000,48.890000C400.280000,47.340000,399.890000,43.530000,399.890000,39.940000C399.890000,38.430000,400.010000,36.730000,399.630000,35.560000C399.150000,34.090000,398.300000,33.090000,396.930000,32.520000C395.710000,32.010000,394.050000,32.010000,392.330000,32.010000C390.300000,32.010000,388.280000,32.010000,386.250000,32.010000C373.680000,32.010000,361.110000,32.010000,348.540000,32.010000C348.520000,28.670000,348.520000,25.350000,348.520000,22.040000L348.520000,22.040000ZM417.280000,22.040000C420.740000,22.040000,424.190000,22.040000,427.650000,22.040000C427.650000,34.710000,427.650000,47.390000,427.650000,60.060000C424.190000,60.060000,420.740000,60.060000,417.280000,60.060000C417.280000,47.390000,417.280000,34.710000,417.280000,22.040000L417.280000,22.040000ZM142.240000,36.250000C155.800000,36.250000,169.370000,36.250000,182.930000,36.250000C184.710000,36.250000,186.490000,36.250000,188.270000,36.250000C189.390000,36.250000,190.510000,36.250000,191.620000,36.250000C192.150000,36.250000,192.820000,36.170000,193.300000,36.280000C193.520000,36.280000,193.740000,36.280000,193.950000,36.280000C194.310000,36.320000,194.670000,36.360000,195.030000,36.390000C195.760000,36.570000,196.500000,36.650000,197.160000,36.900000C199.980000,37.950000,202.260000,39.530000,203.410000,42.240000C203.680000,42.890000,203.720000,43.590000,203.890000,44.370000C203.890000,45.410000,203.890000,46.450000,203.890000,47.500000C203.890000,49.270000,204.050000,51.320000,203.610000,52.700000C203.350000,53.500000,203.060000,54.260000,202.640000,54.920000C202.330000,55.410000,201.940000,55.850000,201.590000,56.310000C201.290000,56.700000,200.690000,57.150000,200.280000,57.450000C199.090000,58.310000,197.860000,58.950000,196.300000,59.470000C195.540000,59.720000,194.720000,59.790000,193.880000,59.980000C193.690000,59.990000,193.500000,60,193.310000,60.010000C192.530000,60.180000,191.350000,60.070000,190.470000,60.070000C188.260000,60.070000,186.060000,60.070000,183.850000,60.070000C169.980000,60.070000,156.100000,60.070000,142.220000,60.070000C142.220000,56.760000,142.220000,53.440000,142.220000,50.130000C159.330000,50.130000,176.450000,50.130000,193.560000,50.130000C193.560000,48.680000,193.560000,47.230000,193.560000,45.780000C182.850000,45.780000,172.140000,45.780000,161.420000,45.780000C159.190000,45.780000,156.970000,45.780000,154.740000,45.780000C153.830000,45.780000,152.610000,45.900000,151.810000,45.720000C151.630000,45.710000,151.450000,45.700000,151.270000,45.690000C150.500000,45.510000,149.740000,45.440000,149.030000,45.210000C145.800000,44.140000,143.290000,42.130000,142.350000,38.760000C142.180000,38.040000,142.240000,37.130000,142.240000,36.250000L142.240000,36.250000ZM279.760000,36.250000C300.310000,36.250000,320.870000,36.250000,341.420000,36.250000C341.420000,39.420000,341.420000,42.600000,341.420000,45.770000C324.310000,45.770000,307.190000,45.770000,290.080000,45.770000C290.080000,47.190000,290.080000,48.610000,290.080000,50.030000C307.190000,50.030000,324.310000,50.030000,341.420000,50.030000C341.420000,53.370000,341.420000,56.720000,341.420000,60.060000C328.570000,60.060000,315.710000,60.060000,302.860000,60.060000C299.870000,60.060000,296.870000,60.060000,293.880000,60.060000C292.200000,60.060000,290.160000,60.190000,288.790000,59.830000C287.400000,59.470000,285.990000,59.130000,284.900000,58.470000C284.060000,57.960000,283.380000,57.450000,282.630000,56.880000C282.340000,56.660000,282.080000,56.320000,281.860000,56.030000C281.710000,55.830000,281.500000,55.640000,281.350000,55.430000C281.100000,55.080000,280.890000,54.690000,280.670000,54.320000C280.230000,53.600000,280.070000,52.660000,279.850000,51.730000C279.710000,51.120000,279.760000,50.310000,279.760000,49.600000C279.760000,48.370000,279.760000,47.140000,279.760000,45.910000C279.760000,42.690000,279.760000,39.470000,279.760000,36.250000L279.760000,36.250000Z" opacity="0" clip-rule="evenodd" fill="rgb(255,255,255)" fill-rule="evenodd" stroke="none" stroke-width="1"/></svg>